<svg role="presentation" width="221" height="40" viewBox="0 0 221 40" fill="none" xmlns="http://www.w3.org/2000/svg">
  <g clip-path="url(#clip0_976_87709)">
    <path d="M20.3363 39.5862C31.2677 39.5862 40.1294 30.7245 40.1294 19.7931C40.1294 8.86167 31.2677 0 20.3363 0C9.40489 0 0.543213 8.86167 0.543213 19.7931C0.543213 30.7245 9.40489 39.5862 20.3363 39.5862Z" fill="#E4763F" />
    <path fill-rule="evenodd" clip-rule="evenodd" d="M50.0588 23.1724V9.10339H56.3347V21.3103C56.3347 23.7241 56.6106 26.0689 59.783 26.0689C62.9554 26.0689 63.2312 23.7241 63.2312 21.3103V9.10339H69.5071V23.1034C69.5071 28.5517 66.0588 31.5172 59.783 31.5172C53.3692 31.5861 50.0588 28.5517 50.0588 23.1724Z" fill="#E4763F" />
    <path fill-rule="evenodd" clip-rule="evenodd" d="M71.1604 28.3447L74.1949 24.1378C75.2983 25.5172 77.2294 26.6896 79.3673 26.6896C81.0225 26.6896 81.988 25.9999 81.988 24.6896C81.988 23.1723 80.6087 22.6896 78.1949 21.9999C75.0225 21.0344 72.1949 19.3792 72.1949 15.5861C72.1949 11.4482 75.6432 8.62061 80.4707 8.62061C83.85 8.62061 86.3328 9.65509 87.988 11.1723L85.1604 15.3792C84.2638 14.3447 82.7466 13.4482 80.8156 13.4482C79.1604 13.4482 78.4707 14.1378 78.4707 14.9654C78.4707 16.3447 80.1259 16.6896 81.919 17.3103C85.5052 18.4137 88.2638 20.0689 88.2638 24.1378C88.2638 28.3447 85.2294 31.5172 79.7121 31.5172C75.6432 31.5861 72.5397 29.862 71.1604 28.3447Z" fill="#E4763F" />
    <path d="M96.679 9.10339H103.576L111.782 31.1034H105.231L104.196 27.931H95.9204L94.8859 31.1034H88.4721C88.541 31.1034 96.679 9.10339 96.679 9.10339ZM102.61 22.9655L100.886 17.6551C100.541 16.6206 100.265 15.3103 100.127 14.3448H99.9204C99.7824 15.3103 99.5066 16.6206 99.1617 17.6551L97.4376 22.9655H102.61Z" fill="#E4763F" />
    <path fill-rule="evenodd" clip-rule="evenodd" d="M120.887 14.2068H115.438V9.10339H132.611V14.2068H127.162V31.1034H120.887V14.2068Z" fill="#E4763F" />
    <path d="M133.024 20.1378C133.024 14.6895 136.886 8.68951 145.093 8.68951C153.3 8.68951 157.162 14.7585 157.162 20.1378C157.162 25.5171 153.3 31.5171 145.093 31.5171C136.886 31.5861 133.024 25.5861 133.024 20.1378ZM150.748 20.1378C150.748 16.2068 148.196 14.1378 145.093 14.1378C142.059 14.1378 139.507 16.2068 139.507 20.1378C139.507 24.0688 142.059 26.0688 145.093 26.0688C148.128 26.0688 150.748 24.0688 150.748 20.1378Z" fill="#E4763F" />
    <path d="M159.438 9.10339H167.576C175.369 9.10339 179.783 13.2413 179.783 20.1379C179.783 26.8965 175.231 31.1724 167.576 31.1724H159.438V9.10339ZM165.783 26.0689H167.162C171.231 26.0689 173.369 24.1379 173.369 20.1379C173.369 16.1379 171.231 14.2068 167.162 14.2068H165.783V26.0689Z" fill="#E4763F" />
    <path d="M187.093 9.10339H193.99L202.197 31.1034H195.645L194.61 27.931H186.334L185.3 31.1034H178.886C178.955 31.1034 187.093 9.10339 187.093 9.10339ZM193.024 22.9655L191.3 17.6551C190.955 16.6206 190.679 15.3103 190.541 14.3448H190.334C190.197 15.3103 189.921 16.6206 189.576 17.6551L187.852 22.9655H193.024Z" fill="#E4763F" />
    <path fill-rule="evenodd" clip-rule="evenodd" d="M205.231 23.3102L197.024 9.1723H203.921L206.886 14.6206C207.507 15.793 208.404 17.5171 208.611 18.6895H208.749C208.955 17.5171 209.783 15.793 210.473 14.6206L213.438 9.1723H220.128L211.921 23.3102V31.1723H205.3V23.3102H205.231Z" fill="#E4763F" />
  </g>
  <defs>
    <clipPath id="clip0_976_87709">
      <rect width="220" height="40" fill="white" transform="translate(0.543213)" />
    </clipPath>
  </defs>
</svg>
