<svg role="presentation" width="126" height="40" viewBox="0 0 126 40" fill="none" xmlns="http://www.w3.org/2000/svg">
  <g clip-path="url(#clip0_976_87688)">
    <path d="M56.6815 39.7079C52.972 39.7079 49.7495 38.55 46.8292 36.168L46.6438 36.0165L49.1347 33.0023L49.3173 33.1488C51.0169 34.5083 53.396 36.0693 56.7357 36.0693C58.4836 36.0693 60.5246 35.4723 60.5246 33.7938C60.5246 32.3525 59.0343 31.9582 56.2837 31.7338C52.8524 31.5184 47.661 31.1919 47.661 26.3349C47.661 22.0351 51.553 20.5038 55.1952 20.5038C58.7867 20.5038 61.981 21.8066 63.6249 22.9236L63.8403 23.0696L61.3159 26.1481L61.134 26.0135C60.5517 25.5807 58.3954 24.1684 55.0868 24.1684C53.595 24.1684 52.0008 24.6741 52.0008 26.0931C52.0008 27.3657 53.9783 27.5248 56.0719 27.6931L56.404 27.72C59.5661 27.933 64.8644 28.2894 64.8644 33.416C64.8644 37.4146 61.8818 39.7079 56.6815 39.7079Z" fill="#E4763F" />
    <path d="M125.12 39.1674H109.321V21.045H124.498V24.8714H113.661V27.8279H120.174V31.6275H113.661V35.3678H125.12V39.1674Z" fill="#E4763F" />
    <path d="M76.1395 39.7079C71.1969 39.7079 67.8755 36.843 67.8755 32.5786V21.045H72.2424V32.5786C72.2424 35.0362 74.3417 35.9083 76.1395 35.9083C78.5766 35.9083 80.0905 34.6336 80.0905 32.5786V21.045H84.4574V32.5786C84.4574 36.9093 81.1926 39.7079 76.1395 39.7079Z" fill="#E4763F" />
    <path d="M106.711 9.84778H115.32V18.3597H116.895V9.84778H125.542V8.42044H116.895V0.14624H115.32V8.42044H106.711V9.84778Z" fill="#E4763F" />
    <path d="M43.6292 21.045H39.2894V39.1674H43.6292V21.045Z" fill="#E4763F" />
    <path d="M35.5912 39.1674H19.793V21.0449H34.9697V24.8714H24.1332V27.8278H30.6458V31.6274H24.1332V35.3678H35.5912V39.1674Z" fill="#E4763F" />
    <path d="M17.2677 39.1674H2.5506V21.045H6.8904V35.3678H17.2677V39.1674Z" fill="#E4763F" />
    <path d="M99.0443 28.9361H92.9583V24.7901H98.7742C99.4528 24.7901 100.157 24.8729 100.714 25.4775C101.075 25.8392 101.266 26.314 101.266 26.8497C101.266 28.0393 100.311 28.9361 99.0443 28.9361ZM102.165 31.9292C104.373 30.8761 105.633 29.0381 105.633 26.8499C105.633 25.4326 105.093 24.0787 104.108 23.037C102.828 21.6965 101.04 21.045 98.6389 21.045H88.618V39.1674H92.9583V32.6817H97.8229L101.39 39.1669H106.376L102.165 31.9292Z" fill="#E4763F" />
    <path d="M110.36 18.2721H95.665V0.177246H99.9989V14.4778H110.36V18.2721Z" fill="#E4763F" />
    <path d="M92.6885 18.2721H76.9141V0.177246H92.0684V3.99847H81.2484V6.94992H87.7507V10.7443H81.2484V14.4778H92.6885V18.2721Z" fill="#E4763F" />
    <path d="M66.8073 18.2721H63.1575L54.7614 0.177246H59.6616L65.0635 12.7898L70.4647 0.177246H75.2033L66.8073 18.2721Z" fill="#E4763F" />
    <path d="M10.7289 18.2721H6.39485V3.99847H0V0.177246H17.0967V3.99847H10.7289V18.2721Z" fill="#E4763F" />
    <path d="M45.7876 11.0241L48.1791 5.44316L50.5711 11.0241H45.7876ZM50.0851 0.177246H46.4629L38.0663 18.2721H42.67L44.2619 14.5486H52.0976L53.7168 18.2721H58.4815L50.0851 0.177246Z" fill="#E4763F" />
    <path d="M29.6496 8.05616H23.5733V3.91775H29.3797C30.0573 3.91775 30.7602 4.00026 31.3159 4.60372C31.6766 4.96466 31.8672 5.43854 31.8672 5.974C31.8672 7.16095 30.9138 8.05616 29.6496 8.05616ZM32.7658 11.0457C34.9702 9.99447 36.228 8.15864 36.228 5.97376C36.228 4.55855 35.6875 3.20658 34.705 2.16657C33.4277 0.827917 31.6416 0.177612 29.2446 0.177612H19.239V18.2722H23.5733V11.797H28.4296L31.9911 18.2722H36.9703L32.7658 11.0457Z" fill="#E4763F" />
  </g>
  <defs>
    <clipPath id="clip0_976_87688">
      <rect width="125.543" height="40" fill="white" />
    </clipPath>
  </defs>
</svg>
