<svg role="presentation" width="222" height="32" viewBox="0 0 222 32" fill="none" xmlns="http://www.w3.org/2000/svg">
  <g clip-path="url(#clip0_976_87703)">
    <path d="M15.8985 19.477H16.4745V10.2132H15.8985C14.911 13.507 13.9235 14.248 12.195 14.248H8.73881V1.73173H14.2117C17.3797 1.73173 19.2318 3.2138 20.137 7.90773H20.7131V0.537662H0.87912V1.11402C3.06001 1.44373 3.71834 2.06108 3.71834 4.20184V27.7524C3.71834 29.8935 3.06001 30.5112 0.87912 30.8406V31.4166H12.5242V30.8406C9.60269 30.4285 8.73881 29.8935 8.73881 27.7524V15.4421H12.195C13.9235 15.4831 14.911 16.1831 15.8985 19.477ZM25.6099 17.9126H20.5075L23.0585 11.6952L25.6099 17.9126ZM164.324 20.2594H156.053L160.168 8.89577L164.324 20.2594ZM89.8027 8.19573C92.3128 8.19573 94.0822 10.2542 94.0822 15.9771C94.0822 21.7004 92.3128 23.7589 89.8027 23.7589C87.2926 23.7589 85.5228 21.7004 85.5228 15.9771C85.5228 10.2542 87.2926 8.19573 89.8027 8.19573ZM89.8027 24.9939C93.7944 24.9939 98.8145 21.4531 98.8145 15.9771C98.8145 10.5012 93.7944 6.96067 89.8027 6.96067C85.811 6.96067 80.7909 10.5012 80.7909 15.9771C80.7909 21.4531 85.811 24.9939 89.8027 24.9939ZM113.628 31.4993L122.557 6.75465L123.257 27.8347C123.339 29.8935 122.475 30.5112 120.006 30.8406V31.4166H144.408V30.8406C141.486 30.4285 140.622 29.8935 140.622 27.7524V17.8712C141.609 17.9946 142.556 18.0773 143.297 18.0773C149.222 18.0773 154.284 15.8948 154.284 9.30746C154.284 2.71977 149.222 0.537662 143.297 0.537662H132.762V1.11402C134.943 1.44373 135.602 2.06108 135.602 4.20184V27.7524C135.602 29.8935 134.738 30.8406 132.228 30.8406H132.187C129.553 30.8406 128.483 29.8935 128.401 27.8347L127.537 4.28454C127.454 2.14341 128.195 1.44373 130.499 1.11402V0.537662H123.257L115.315 22.7705L107.373 0.537662H99.5961V1.11402C101.901 1.44373 102.641 2.14341 102.559 4.28454L101.736 26.888C101.654 29.1111 100.502 30.5112 98.3207 30.8406V31.4166H106.509V30.8406C104.452 30.5112 103.218 29.1935 103.3 26.888L103.999 6.34297L113.052 31.4993H113.628ZM37.7078 31.8286C42.7692 31.8286 48.1598 28.9055 48.1598 22.8942C48.1598 19.3947 46.3077 16.4715 43.0157 14.6597L37.214 11.4482C34.1276 9.76013 33.2224 8.15474 33.2224 5.93128C33.2224 3.41982 35.0741 1.36139 38.613 1.36139C40.3411 1.36139 41.6171 1.77308 42.6456 2.80211C43.5512 3.70782 44.415 5.19025 45.238 7.90773H45.814V1.07303C43.7157 0.455325 41.5345 0.125977 39.0244 0.125977C34.0043 0.125977 30.2595 3.29613 30.2595 8.56643C30.2595 11.9422 32.1116 15.0304 35.1974 16.7595L40.547 19.765C43.5921 21.4531 44.5796 23.1002 44.5796 25.6116C44.5796 28.5348 41.6171 30.5936 38.2838 30.5936C36.1439 30.5936 34.2922 29.8522 33.0168 28.5761C32.1939 27.7524 31.3297 26.4764 30.6714 24.8293H34.2099V24.2533C33.2637 24.0472 32.6463 23.8822 31.8234 21.9471L24.9516 5.56058H24.3752L17.6679 21.5354C16.7627 23.6765 16.1867 24.0472 15.1169 24.2533V24.8293H21.1658V24.2533C18.9849 24.0472 18.4086 22.9765 18.9436 21.6591L20.0138 19.1063H26.1037L27.4203 22.2764C27.9964 23.6765 27.1325 24.0472 24.9516 24.2533V24.8293H29.7248V30.7579C32.029 31.4166 35.1151 31.8286 37.7078 31.8286ZM47.0487 0.537662V7.90773H47.6244C48.53 3.2138 50.3817 1.73173 53.5504 1.73173H55.0726V27.7524C55.0726 29.8935 54.2088 30.5112 51.6983 30.8406V31.4166H63.467V30.8406C60.957 30.5112 60.0931 29.8935 60.0931 27.7524V1.73173H61.6153C64.7837 1.73173 66.6358 3.2138 67.5406 7.90773H68.117V0.537662H47.0487ZM143.091 16.8828C142.391 16.8828 141.527 16.8009 140.622 16.6772V1.73173H143.091C147.165 1.73173 148.975 3.91384 148.975 9.30746C148.975 14.7011 147.165 16.8828 143.091 16.8828ZM76.8406 15.9771C76.8406 6.38431 81.367 1.36139 86.6753 1.36139C89.8027 1.36139 91.819 2.06108 93.0534 3.29613C93.9586 4.20184 94.6582 5.47825 95.3579 7.49604H95.9339V1.07303C92.8888 0.455325 90.0905 0.125977 87.3336 0.125977C79.351 0.125977 71.0799 5.31357 71.0799 15.9771C71.0799 26.6407 79.351 31.8286 86.8399 31.8286C90.1322 31.8286 93.0534 31.3346 95.8103 30.4702L96.7159 24.4176L96.1808 24.2942C95.5225 25.5707 94.6992 26.7234 93.7944 27.6291C91.819 29.6052 89.2267 30.5936 86.593 30.5936C81.5315 30.5936 76.8406 25.694 76.8406 15.9771ZM194.816 4.20184C194.816 2.06108 195.515 1.32004 196.626 1.32004C197.737 1.32004 198.642 1.73173 199.712 4.20184L206.09 18.6533V27.7524C206.09 29.8935 205.227 30.5112 202.716 30.8406V31.4166H214.485V30.8406C211.975 30.5112 211.111 29.8935 211.111 27.7524V18.6533L217.242 4.73721C218.435 2.06108 219.67 1.44373 221.398 1.11402V0.537662H212.839V1.11402C215.76 1.44373 216.789 2.22575 215.966 4.16085L210.576 16.4715L205.021 3.8315C204.28 2.14341 204.733 1.56706 207.901 1.11402V0.537662H189.425V1.11402C192.347 1.52607 193.211 2.06108 193.211 4.20184V21.1237L179.714 0.537662H173.048V1.11402C175.228 1.44373 175.887 2.06108 175.887 4.20184V27.7524C175.887 29.8935 175.27 30.6346 174.529 30.6346C173.83 30.6346 173.459 30.3052 172.513 27.7524L162.472 0.414336H161.896L152.267 26.6C151.197 29.4822 149.551 30.5112 147.947 30.8406V31.4166H156.793V30.8406C153.707 30.5112 152.761 29.3585 153.46 27.4231L155.641 21.4531H164.735L166.793 27.0937C167.698 29.6052 167.163 30.3466 164.53 30.8406V31.4166H181.277V30.8406C178.356 30.4285 177.492 29.8935 177.492 27.7524V6.67231L193.828 31.4993H194.816V4.20184Z" fill="#E4763F" />
  </g>
  <defs>
    <clipPath id="clip0_976_87703">
      <rect width="221" height="32" fill="white" transform="translate(0.543182)" />
    </clipPath>
  </defs>
</svg>
