<svg role="presentation" width="138" height="56" viewBox="0 0 138 56" fill="none" xmlns="http://www.w3.org/2000/svg">
  <g clip-path="url(#clip0_976_87707)">
    <path fill-rule="evenodd" clip-rule="evenodd" d="M129.103 38.2718C127.97 39.3232 126.642 39.8489 125.118 39.8489C123.121 39.8489 121.653 39.1713 120.711 37.8162C119.769 36.4611 119.299 34.5537 119.299 32.0962V25.9025H116.541L116.44 25.6742C117.234 23.6164 118.536 21.7929 120.224 20.3737C121.939 18.9166 123.918 17.947 126.161 17.4659L126.362 17.6177V23.3951L131.071 20.7719L131.273 20.9238L130.432 25.9025L126.362 25.6742V30.6911C126.362 32.008 126.581 32.9894 127.018 33.6361C127.455 34.2818 128.122 34.6047 129.019 34.6047C129.401 34.6047 129.77 34.5229 130.129 34.3583C130.487 34.1937 130.803 34.0227 131.071 33.8443L131.307 33.9972C130.97 35.7963 130.235 37.2215 129.103 38.2718V38.2718ZM114.186 38.0828C112.728 39.2606 110.767 39.8489 108.3 39.8489C106.909 39.8489 105.564 39.6599 104.264 39.2786C102.963 38.8995 101.819 38.3547 100.834 37.6452L103.12 33.4651H103.288C103.961 34.833 104.768 35.9481 105.709 36.8094C106.651 37.6697 107.536 38.1008 108.368 38.1008C108.816 38.1008 109.168 37.9819 109.426 37.7397C109.684 37.4997 109.814 37.1769 109.814 36.7712C109.814 36.1627 109.601 35.6433 109.175 35.2132C108.748 34.782 107.908 34.2128 106.651 33.5034L105.777 33.0095C104.633 32.3511 103.736 31.7351 103.086 31.1659C102.436 30.5956 101.971 29.9945 101.691 29.3604C101.41 28.7275 101.27 27.9926 101.27 27.1568C101.27 25.9153 101.595 24.8384 102.245 23.9261C102.896 23.0149 103.832 22.2991 105.054 21.7798C106.275 21.2594 107.75 21.0003 109.477 21.0003C110.801 21.0003 112.073 21.1521 113.294 21.4569C114.517 21.7607 115.599 22.2035 116.541 22.7866L113.648 26.0926H113.446C112.908 24.9775 112.303 24.1417 111.63 23.5841C110.958 23.0276 110.228 22.7483 109.443 22.7483C108.973 22.7483 108.586 22.8683 108.283 23.1094C108.139 23.2177 108.022 23.3586 107.944 23.5205C107.865 23.6824 107.826 23.8607 107.829 24.0408C107.829 24.37 107.925 24.6738 108.116 24.952C108.305 25.2313 108.647 25.5361 109.141 25.8654C109.633 26.1946 110.33 26.6119 111.226 27.1185L112.403 27.7642C113.794 28.5501 114.803 29.3743 115.43 30.2345C116.058 31.0968 116.373 32.1217 116.373 33.3133C116.373 35.3141 115.643 36.9039 114.185 38.0817L114.186 38.0828ZM98.2104 20.7719L98.4122 20.8866V35.2504L99.4211 39.2414V39.4698H90.3398V39.2414L91.3487 35.2504V26.51L90.3398 22.9002V22.6729L98.2093 20.7719H98.2104ZM94.744 12.8673C95.8655 12.8673 96.7958 13.1785 97.536 13.7987C98.2752 14.42 98.6458 15.2494 98.6458 16.2881C98.6458 17.3522 98.2752 18.1891 97.536 18.7966C96.7958 19.404 95.8655 19.7078 94.744 19.7078C93.6682 19.7078 92.7538 19.404 92.004 18.7966C91.251 18.188 90.8761 17.3522 90.8761 16.2881C90.8761 15.2494 91.251 14.42 92.0029 13.7987C92.7538 13.1785 93.6682 12.8673 94.744 12.8673V12.8673ZM88.1871 39.4698H79.1047V39.2414L80.1137 35.2504V18.6054L79.1047 14.9956V14.7684L86.9764 12.8673L87.1782 12.982V35.2504L88.1871 39.2414V39.4698V39.4698ZM76.9531 39.4698H67.8707V39.2414L68.8797 35.2504V18.6054L67.8707 14.9956V14.7684L75.7424 12.8673L75.9442 12.982V35.2504L76.9531 39.2414V39.4698V39.4698ZM64.5084 20.7719L64.7102 20.8866V35.2504L65.7191 39.2414V39.4698H56.6378V39.2414L57.6467 35.2504V26.51L56.6378 22.9002V22.6729L64.5073 20.7719H64.5084ZM61.043 12.8673C62.1645 12.8673 63.0949 13.1785 63.8351 13.7987C64.5753 14.42 64.9449 15.2494 64.9449 16.2881C64.9449 17.3522 64.5753 18.1891 63.8351 18.7966C63.0949 19.404 62.1645 19.7078 61.043 19.7078C59.9672 19.7078 59.0528 19.404 58.3031 18.7966C57.5501 18.188 57.1752 17.3522 57.1752 16.2881C57.1752 15.2494 57.5501 14.42 58.302 13.7987C59.0528 13.1785 59.9672 12.8673 61.043 12.8673V12.8673ZM54.3842 27.6506H54.1824C53.9122 27.3627 53.5933 27.1247 53.2404 26.9475C52.8945 26.7808 52.5147 26.6961 52.1306 26.7001C51.7037 26.7001 51.2608 26.7829 50.802 26.9475C50.4208 27.0845 50.0692 27.2715 49.7421 27.503V35.2504L51.2555 39.2414V39.4698H41.6698V39.2414L42.6787 35.2504V26.51L41.6698 22.9002V22.6729L49.5393 20.7719L49.7411 20.8866V25.7368C50.2508 24.267 50.8827 23.1254 51.6421 22.3108C52.5055 21.3868 53.4868 20.9238 54.586 20.9238C54.8324 20.9238 55.0905 20.9684 55.3591 21.0576C55.6278 21.1468 55.8413 21.2541 55.9985 21.3805L54.3842 27.6506V27.6506ZM39.5829 39.4698H30.5027V39.2414L31.5116 35.2504V30.3109C31.5116 28.8666 31.2981 27.8407 30.8723 27.2332C30.4453 26.6247 29.8846 26.3199 29.19 26.3199C28.7642 26.3199 28.3659 26.4155 27.9963 26.6056C27.7254 26.7419 27.4805 26.9249 27.2731 27.1461V35.2504L28.282 39.2414V39.4698H19.1996V39.2414L20.2086 35.2504V18.6054L19.1996 14.9956V14.7684L27.0713 12.8673L27.2731 12.982V25.5733C27.4371 24.9992 27.6688 24.4466 27.9634 23.9272C28.4825 22.9965 29.2211 22.2068 30.115 21.6268C31.0008 21.0576 31.9927 20.7719 33.0919 20.7719C34.3249 20.7719 35.3455 21.1394 36.1526 21.8743C36.9597 22.6092 37.5651 23.616 37.9686 24.8957C38.3722 26.1755 38.574 27.6134 38.574 29.2086V35.2514L39.5829 39.2414V39.4698ZM15.2479 38.2718C14.1158 39.3232 12.7872 39.8489 11.2621 39.8489C9.26555 39.8489 7.79784 39.1713 6.85583 37.8162C5.91382 36.4611 5.44335 34.5537 5.44335 32.0962V25.9025H2.68636L2.58547 25.6742C3.37942 23.6167 4.68115 21.7936 6.36943 20.3747C8.08352 18.9166 10.0642 17.947 12.3061 17.4648L12.5079 17.6167V23.394L17.2169 20.7709L17.4186 20.9227L16.5775 25.9015L12.5079 25.6731V30.6901C12.5079 32.007 12.7267 32.9883 13.1642 33.6351C13.6018 34.2808 14.2676 34.6036 15.165 34.6036C15.5452 34.6036 15.9159 34.5218 16.2748 34.3572C16.6338 34.1926 16.9482 34.0216 17.2169 33.8432L17.4526 33.9961C17.116 35.7952 16.381 37.2204 15.2489 38.2708L15.2479 38.2718ZM133.393 32.7175L132.396 32.0728V31.4569L136.157 31.6671L137.472 23.8879L133.323 19.728L131.226 18.1445L126.606 15.0572L125.764 15.2378C122.343 15.9593 119.271 17.8274 117.056 20.533C116.015 19.959 114.902 19.5251 113.748 19.2426C112.35 18.8989 110.916 18.727 109.476 18.7307C107.653 18.7307 106.035 19.0015 104.655 19.5283C104.541 18.2964 104.035 17.2269 103.173 16.3911C103.114 16.3274 98.9145 12.1112 98.7446 11.9699C97.6613 11.0598 96.3158 10.5978 94.7461 10.5978C93.2274 10.5978 91.8999 11.0566 90.806 11.9614C90.571 12.1578 90.3542 12.375 90.1582 12.6103L89.0622 11.4973L87.2547 10.4767L78.7723 12.5243L77.8293 11.4973L76.0207 10.4767L65.9952 12.8981C65.6847 12.5824 65.3678 12.2729 65.0447 11.9699C63.9593 11.0598 62.6127 10.5978 61.043 10.5978C59.5244 10.5978 58.1979 11.0566 57.103 11.9604C55.9167 12.9417 55.289 14.3074 55.289 15.91C55.289 17.0963 55.6268 18.1445 56.2661 19.0005C55.7342 18.7749 55.1627 18.6572 54.5849 18.6543C53.5465 18.6548 52.529 18.9469 51.6485 19.4975L51.6272 19.403L49.8207 18.3813L39.7847 20.8048V22.4584C38.9999 21.6675 38.2119 20.8798 37.4206 20.0954C36.3087 19.0833 34.9249 18.5555 33.3085 18.5109V15.6573L29.1592 11.4973L27.3517 10.4767L17.3156 12.8992V14.8777L18.3245 18.4886V18.8635L14.394 16.2934L12.75 15.0583L11.911 15.2388C9.41681 15.7626 7.09312 16.9016 5.1513 18.5523C3.22449 20.1764 1.73794 22.2598 0.828893 24.61L0.543211 25.3439L1.46079 27.4148L3.53491 29.4964H3.55827V31.7171C3.55827 34.5579 4.14769 36.8466 5.3106 38.5182C5.53681 38.8442 5.81824 39.1873 6.16446 39.5165C6.22606 39.5792 10.0589 43.4247 10.1258 43.4874C11.1442 44.542 12.7936 45.5233 15.4114 45.5233C17.2254 45.5233 18.8439 44.9466 20.2351 43.8187L21.4639 45.1431H105.454V43.909C106.211 44.2945 107.018 44.6237 107.883 44.8765C109.366 45.3081 110.903 45.5258 112.448 45.5233C115.344 45.5233 117.722 44.7873 119.518 43.3366C120.323 42.6925 120.991 41.8924 121.48 40.9842C121.496 40.9991 123.912 43.4268 123.978 43.4884C124.998 44.542 126.648 45.5233 129.266 45.5233C131.273 45.5233 133.046 44.8223 134.533 43.4417C135.963 42.1142 136.898 40.3258 137.307 38.1284L137.543 36.8785L133.394 32.7175H133.393Z" fill="#E4763F" />
  </g>
  <defs>
    <clipPath id="clip0_976_87707">
      <rect width="137" height="56" fill="white" transform="translate(0.543213)" />
    </clipPath>
  </defs>
</svg>
