<svg role="presentation" width="155" height="40" viewBox="0 0 155 40" fill="none" xmlns="http://www.w3.org/2000/svg">
  <g clip-path="url(#clip0_976_87722)">
    <path d="M87.5041 0.0766383C85.6208 0.335012 76.1273 2.21061 76.0505 2.33501C75.9256 2.5264 75.964 3.23453 76.1177 3.37807C76.1946 3.4642 76.5693 3.59817 76.9441 3.68429C78.2605 3.98094 78.7698 4.33501 79.1541 5.20582C79.5289 6.07664 79.6249 6.62209 79.721 8.32544C79.894 11.512 79.942 22.4116 79.8267 30.6125C79.7595 35.0527 79.7306 38.6986 79.7595 38.7274C79.8459 38.8135 82.9976 39.4068 84.7656 39.6747C86.3415 39.9044 86.7451 39.9235 89.2337 39.9235C91.5494 39.9235 92.1452 39.8948 93.0772 39.7226C97.6222 38.9283 101.168 36.3637 103.07 32.4785C103.57 31.4451 104.06 29.9522 104.396 28.4307C104.637 27.2824 104.656 27.1006 104.656 24.6412C104.646 21.7226 104.55 20.957 103.974 19.2345C102.686 15.3972 100.236 12.823 96.8247 11.7226C96.1136 11.4929 95.8061 11.4451 94.4897 11.4068C92.1164 11.3398 90.5117 11.6173 88.8109 12.3829C88.3978 12.5742 88.023 12.7274 87.975 12.7274C87.9269 12.7274 87.8885 9.9618 87.8885 6.42114C87.8885 2.94745 87.8597 0.0957771 87.8212 0.0766383C87.7732 0.0574996 87.6387 0.0574996 87.5041 0.0766383ZM91.9722 14.8709C93.2598 15.4833 94.0766 16.335 94.826 17.847C95.6044 19.4068 96.0175 21.1388 96.1617 23.4738C96.5652 29.9044 94.6339 35.8278 91.6359 37.3207C90.848 37.713 90.2042 37.8278 89.2145 37.78C88.5899 37.7417 88.3113 37.6843 88.196 37.5695C88.0615 37.4355 88.023 37.1006 87.975 35.6173C87.8597 32.335 87.7636 19.6939 87.8405 17.3111L87.9077 14.9474L88.5035 14.8039C89.3971 14.5742 89.4067 14.5647 90.3868 14.5551C91.242 14.5455 91.3477 14.5647 91.9722 14.8709Z" fill="#E4763F" />
    <path d="M1.99526 0.736896L0.515503 0.775173L0.582764 1.21536C0.611591 1.4546 0.640417 1.85651 0.640417 2.10532V2.56465L1.58208 2.67948C3.40775 2.90914 4.34941 3.39718 4.93554 4.44981C5.99251 6.34455 6.16547 8.81345 6.0886 21.3685C6.04056 29.2823 5.97329 31.3302 5.73307 32.9666C5.39677 35.1771 4.74337 36.3637 3.5711 36.8996C3.31166 37.0144 2.60061 37.2058 2.00486 37.3302C1.41873 37.445 0.85181 37.5981 0.755723 37.6651C0.630808 37.7608 0.592373 37.9235 0.592373 38.4498C0.592373 38.823 0.630808 39.1579 0.669244 39.2058C0.717287 39.2441 5.20459 39.2823 10.6432 39.2823C19.3295 39.2823 20.5498 39.2632 20.6363 39.1388C20.7324 38.9953 20.7132 37.7608 20.6171 37.6556C20.5786 37.6268 19.8868 37.4833 19.0701 37.3302C17.4077 37.024 16.9561 36.8422 16.4565 36.2489C15.2554 34.8517 14.9287 32.5838 14.7942 24.8517L14.7365 21.2441H15.3034C16.3508 21.2441 19.1373 21.4355 19.6658 21.5407C20.3384 21.6747 20.7708 21.9044 21.2417 22.3541C21.9719 23.0623 22.5485 24.2106 22.9616 25.7895L23.1634 26.5838L23.7399 26.6412C24.0474 26.6699 24.451 26.6986 24.6239 26.6986H24.9506V20.0862C24.9506 14.0957 24.941 13.4737 24.7969 13.5312C24.7104 13.5599 24.3069 13.5886 23.9033 13.5886H23.1538L23.0289 14.134C22.8463 14.9857 22.3947 16.2297 22.1064 16.7273C21.7029 17.4163 20.9438 18.1532 20.3769 18.4211C19.7427 18.7178 18.9932 18.8134 16.6006 18.8996L14.7365 18.9761L14.7942 13.8182C14.8614 8.22015 15.0152 3.9235 15.1401 3.7991C15.265 3.67469 22.6061 3.77996 23.173 3.9235C23.4421 3.98091 24.1051 4.24886 24.6528 4.5168C25.508 4.92828 25.7674 5.1101 26.4881 5.81824C27.6892 7.00484 28.5924 8.49766 29.4764 10.7465C30.0817 12.3158 30.0625 12.2967 31.2636 11.9426L31.9939 11.7321L31.917 6.99527C31.8786 4.38283 31.8209 1.9235 31.7825 1.53115L31.7248 0.813451L24.8546 0.756034C17.8882 0.698618 4.69533 0.689049 1.99526 0.736896Z" fill="#E4763F" />
    <path d="M40.2767 11.0144C36.8175 11.3398 34.0021 12.6604 31.7633 14.9953C29.2074 17.6843 27.9294 21.1867 27.9294 25.5599C27.9294 28.5647 28.4963 31.1675 29.6301 33.4451C31.0042 36.1723 33.4737 38.3254 36.3371 39.2824C37.8937 39.8087 38.7489 39.914 41.1511 39.9235C43.5244 39.9235 43.6301 39.914 45.0811 39.5503C49.8374 38.3733 53.3831 34.6795 54.5938 29.6364C55.0454 27.7608 55.1703 24.5838 54.8724 22.5934C53.8443 15.6173 49.7509 11.5982 43.1017 11.0049C41.8717 10.8996 41.5162 10.8996 40.2767 11.0144ZM42.5251 13.3589C43.3707 13.7321 44.2259 14.6986 44.8793 16.0001C46.0612 18.3733 46.5128 21.1197 46.5032 25.9809C46.484 31.8948 45.7537 35.1675 44.0625 36.8518C43.265 37.646 42.7846 37.847 41.6699 37.847C40.8724 37.847 40.6995 37.8183 40.2767 37.5886C38.5471 36.6891 37.3556 34.1819 36.7022 30.1149C36.5581 29.2154 36.5292 28.4211 36.5292 25.2154C36.5292 21.2537 36.5869 20.335 36.9713 18.469C37.615 15.3015 38.8546 13.4451 40.5265 13.1197C41.1415 13.0049 41.9294 13.1006 42.5251 13.3589Z" fill="#E4763F" />
    <path d="M73.474 11.0045C71.091 11.4447 68.9674 13.1767 67.3724 15.9614C67.1226 16.4016 66.9112 16.7461 66.9016 16.727C66.8919 16.7078 66.9208 15.4351 66.9688 13.8944C67.0265 12.3538 67.0361 11.0715 66.9976 11.0332C66.9208 10.9471 56.1205 13.0619 55.3326 13.3107L55.0155 13.416L55.0443 13.9997L55.0732 14.593L56.0533 14.8035C57.3024 15.0715 57.6579 15.2437 57.9942 15.7317C58.7725 16.8514 58.8206 17.4638 58.8206 25.9327C58.8206 34.593 58.7533 35.4638 57.975 36.4782C57.5714 37.0045 57.0045 37.282 55.9091 37.4829L55.0155 37.6456L55.0443 38.4207L55.0732 39.1863L57.139 39.2628C58.2729 39.3107 61.9819 39.3203 65.3834 39.282L71.5522 39.215V38.4207V37.6265L70.8604 37.5595C68.7945 37.3585 68.1123 37.1002 67.6703 36.3346C67.1226 35.4064 66.988 34.2581 66.8343 29.0428C66.6998 24.3442 66.8055 19.5882 67.0649 19.2054C67.2955 18.8514 68.487 18.2963 69.3902 18.1241C70.8315 17.8466 72.1864 18.0571 73.9832 18.8609C74.4444 19.0619 74.8961 19.2341 74.9921 19.2341C75.1171 19.2341 75.3285 18.7939 75.8954 17.3394C76.9619 14.6217 77.894 12.0762 77.894 11.8657C77.894 11.3968 76.6641 11.0045 75.0594 10.9566C74.4252 10.9375 73.7142 10.9566 73.474 11.0045Z" fill="#E4763F" />
    <path d="M119.242 11.0048C114.37 11.4259 110.354 14.1627 108.403 18.4211C107.692 19.9714 107.202 21.6747 107 23.2919C106.837 24.6699 106.942 28.1053 107.192 29.2345C108.403 34.7847 112.17 38.6125 117.512 39.7225C118.79 39.9905 121.759 40.0192 123.104 39.78C124.978 39.445 127.121 38.5455 128.533 37.5024C129.552 36.7465 130.849 35.4642 131.022 35.0431C131.147 34.7465 131.137 34.6986 130.878 34.3254C130.715 34.1053 130.532 33.9139 130.455 33.8948C130.378 33.8852 129.821 34.1532 129.225 34.4881C127.505 35.4546 126.554 35.6938 124.45 35.6938C121.538 35.6938 120.039 35.1005 118.156 33.2154C117.31 32.3733 117.06 32.0575 116.695 31.3398C115.802 29.5981 115.331 27.78 115.216 25.6173L115.148 24.4307L119.789 24.3733C122.345 24.335 126.025 24.3063 127.976 24.3063H131.512V23.4163C131.512 21.2249 130.849 18.2871 129.965 16.5359C129.196 15.024 127.88 13.4833 126.698 12.7082C124.642 11.3589 122.038 10.7656 119.242 11.0048ZM120.76 13.3111C121.721 13.7895 122.528 15.4833 122.912 17.8182C123.047 18.6603 123.297 21.7991 123.239 21.8661C123.162 21.9331 115.321 22.0766 115.244 22.0192C115.062 21.8469 115.542 18.9474 116.003 17.4163C117.022 14.0862 118.963 12.402 120.76 13.3111Z" fill="#E4763F" />
    <path d="M143.11 11.0144C140.093 11.2632 137.893 12.201 136.115 13.9618C134.549 15.5312 133.78 17.2058 133.655 19.3398C133.454 22.8709 134.972 25.4355 138.21 27.024C138.671 27.2536 139.728 27.713 140.545 28.0383C143.428 29.1962 144.475 29.7513 145.378 30.6125C146.099 31.2919 146.339 31.8374 146.387 32.8804C146.474 34.7273 145.714 36.0288 144.119 36.7752C143.485 37.0814 143.456 37.0814 142.034 37.0814C140.776 37.0814 140.516 37.0527 140.026 36.8709C137.989 36.1053 136.404 34.2393 135.049 31.024L134.549 29.8374L134.107 29.8852C133.867 29.9139 133.55 29.9809 133.396 30.0479L133.117 30.1532L133.194 34.1436C133.233 36.335 133.3 38.201 133.348 38.2967C133.511 38.5934 135.856 39.2441 138.268 39.6651C139.555 39.8852 139.94 39.9044 142.313 39.9044C145.215 39.9044 146.032 39.8182 147.482 39.3302C149.251 38.7369 150.471 38.0383 151.537 36.9953C153.075 35.4833 153.92 33.5694 154.045 31.2919C154.189 28.6508 153.632 26.9283 152.124 25.4068C151.047 24.3158 149.808 23.5981 146.743 22.2776C141.929 20.201 140.631 18.8613 141.016 16.3541C141.15 15.4833 141.39 14.9857 141.948 14.3541C143.091 13.091 145.023 12.8709 146.944 13.78C147.723 14.1532 148.741 15.091 149.337 15.9809C149.769 16.6221 150.442 17.9905 150.97 19.2632C151.115 19.6173 151.307 19.9522 151.403 20.0001C151.518 20.067 151.739 20.0383 152.085 19.9139L152.604 19.7417L152.633 18.6029C152.642 17.9809 152.623 16.335 152.575 14.9474C152.517 12.8996 152.479 12.4115 152.364 12.3446C152.085 12.1723 150.394 11.6651 149.491 11.4833C147.396 11.0623 144.782 10.8709 143.11 11.0144Z" fill="#E4763F" />
  </g>
  <defs>
    <clipPath id="clip0_976_87722">
      <rect width="153.548" height="40" fill="white" transform="translate(0.543213)" />
    </clipPath>
  </defs>
</svg>
